<svg version="1.1" id="Layer_1" xmlns="http://www.w3.org/2000/svg" xmlns:xlink="http://www.w3.org/1999/xlink" x="0px" y="0px"
	 width="100%" viewBox="0 0 192 192" enable-background="new 0 0 192 192" xml:space="preserve">
<path fill="#010101" opacity="1.000000" stroke="none" 
	d="
M127.000000,193.000000 
	C84.693916,193.000000 42.887829,193.000000 1.040873,193.000000 
	C1.040873,129.068954 1.040873,65.137886 1.040873,1.103403 
	C64.889229,1.103403 128.778687,1.103403 192.834076,1.103403 
	C192.834076,64.999649 192.834076,128.999786 192.834076,193.000000 
	C171.138168,193.000000 149.319092,193.000000 127.000000,193.000000 
M69.426880,75.934006 
	C68.138306,80.059219 66.669281,84.139465 65.625916,88.325798 
	C64.953705,91.022926 63.774448,92.391006 60.957722,93.275177 
	C54.563980,95.282143 48.483627,98.163048 44.690193,104.114624 
	C43.909061,105.340164 43.571892,107.303246 43.979679,108.635780 
	C44.176701,109.279587 46.596664,109.557014 47.974739,109.465797 
	C51.882717,109.207100 55.772457,108.672890 59.893459,108.222702 
	C59.698967,109.373886 59.576637,110.021027 59.481552,110.672150 
	C57.684292,122.979050 55.059704,135.237289 54.327869,147.607452 
	C53.587940,160.114441 56.184952,161.608658 68.388802,159.230988 
	C76.880890,157.576477 77.979439,155.466751 79.045609,146.901581 
	C80.643822,134.062317 83.136391,121.328354 85.535645,108.603729 
	C85.789444,107.257683 87.937065,105.312141 89.252045,105.275078 
	C99.196602,104.994797 109.152649,105.121956 119.594528,105.121956 
	C119.036560,108.453590 118.617035,110.399185 118.396980,112.367081 
	C117.307152,122.113113 115.467865,131.860474 115.412376,141.616013 
	C115.339005,154.516556 121.895699,159.620697 134.532684,158.304276 
	C138.086426,157.934082 140.017624,156.355911 139.955490,152.590515 
	C139.629395,132.821823 143.396194,113.512062 146.516556,94.124184 
	C149.264465,77.050438 151.968887,59.967113 154.369888,42.842781 
	C154.750839,40.125820 153.430634,37.170341 152.896942,34.325138 
	C150.169785,35.612743 147.020706,36.400414 144.793335,38.280212 
	C137.661850,44.298817 134.313721,52.748585 131.464355,61.303837 
	C128.429321,70.416542 125.789696,79.660927 122.978226,88.845215 
	C112.362106,88.845215 101.898407,88.845215 91.140556,88.845215 
	C93.240028,81.061371 95.189163,73.517853 97.321838,66.026588 
	C99.081352,59.846104 101.406883,53.807308 102.837364,47.558250 
	C104.180824,41.689335 101.689850,38.828419 95.885597,38.976593 
	C90.235641,39.120827 84.554932,39.379456 78.961327,40.133720 
	C67.732559,41.647861 56.558163,43.586338 46.867092,50.096981 
	C42.487232,53.039455 39.464314,57.024860 39.836384,62.510605 
	C39.990147,64.777603 41.491455,66.953209 42.379887,69.170380 
	C44.213844,68.273544 46.324768,67.703979 47.835625,66.425346 
	C56.020687,59.498386 65.601372,57.770081 76.224625,57.774757 
	C73.905502,64.044868 71.837860,69.635071 69.426880,75.934006 
z"/>
<path fill="#FBFBFB" opacity="1.000000" stroke="none" 
	d="
M69.598557,75.579636 
	C71.837860,69.635071 73.905502,64.044868 76.224625,57.774757 
	C65.601372,57.770081 56.020687,59.498386 47.835625,66.425346 
	C46.324768,67.703979 44.213844,68.273544 42.379887,69.170380 
	C41.491455,66.953209 39.990147,64.777603 39.836384,62.510605 
	C39.464314,57.024860 42.487232,53.039455 46.867092,50.096981 
	C56.558163,43.586338 67.732559,41.647861 78.961327,40.133720 
	C84.554932,39.379456 90.235641,39.120827 95.885597,38.976593 
	C101.689850,38.828419 104.180824,41.689335 102.837364,47.558250 
	C101.406883,53.807308 99.081352,59.846104 97.321838,66.026588 
	C95.189163,73.517853 93.240028,81.061371 91.140556,88.845215 
	C101.898407,88.845215 112.362106,88.845215 122.978226,88.845215 
	C125.789696,79.660927 128.429321,70.416542 131.464355,61.303837 
	C134.313721,52.748585 137.661850,44.298817 144.793335,38.280212 
	C147.020706,36.400414 150.169785,35.612743 152.896942,34.325134 
	C153.430634,37.170341 154.750839,40.125820 154.369888,42.842781 
	C151.968887,59.967113 149.264465,77.050438 146.516556,94.124184 
	C143.396194,113.512062 139.629395,132.821823 139.955490,152.590515 
	C140.017624,156.355911 138.086426,157.934082 134.532684,158.304276 
	C121.895699,159.620697 115.339005,154.516556 115.412376,141.616013 
	C115.467865,131.860474 117.307152,122.113113 118.396980,112.367081 
	C118.617035,110.399185 119.036560,108.453590 119.594528,105.121956 
	C109.152649,105.121956 99.196602,104.994797 89.252045,105.275078 
	C87.937065,105.312141 85.789444,107.257683 85.535645,108.603729 
	C83.136391,121.328354 80.643822,134.062317 79.045609,146.901581 
	C77.979439,155.466751 76.880890,157.576477 68.388802,159.230988 
	C56.184952,161.608658 53.587940,160.114441 54.327869,147.607452 
	C55.059704,135.237289 57.684292,122.979050 59.481552,110.672150 
	C59.576637,110.021027 59.698967,109.373886 59.893459,108.222702 
	C55.772457,108.672890 51.882717,109.207100 47.974739,109.465797 
	C46.596664,109.557014 44.176701,109.279587 43.979679,108.635780 
	C43.571892,107.303246 43.909061,105.340164 44.690193,104.114624 
	C48.483627,98.163048 54.563980,95.282143 60.957722,93.275177 
	C63.774448,92.391006 64.953705,91.022926 65.625916,88.325798 
	C66.669281,84.139465 68.138306,80.059219 69.598557,75.579636 
z"/>
</svg>