<svg version="1.1" id="Layer_1" xmlns="http://www.w3.org/2000/svg" xmlns:xlink="http://www.w3.org/1999/xlink" x="0px" y="0px"
	 width="100%" viewBox="0 0 192 192" enable-background="new 0 0 192 192" xml:space="preserve">
<path fill="#FEFEFE" opacity="1.000000" stroke="none" 
	d="
M1.000000,184.000000 
	C1.000000,126.312439 1.000000,68.624878 1.313556,10.776899 
	C3.425594,8.694676 5.264350,6.808499 7.007692,4.837911 
	C8.080486,3.625276 9.007520,2.283688 10.000000,1.000000 
	C67.687561,1.000000 125.375122,1.000000 183.242584,1.298267 
	C185.786774,4.327710 188.091751,7.115011 190.572235,9.736243 
	C190.998444,10.186640 192.171783,9.930019 193.000000,10.000000 
	C193.000000,67.687561 193.000000,125.375122 192.683777,183.222626 
	C190.565582,185.313248 188.724564,187.209457 186.976105,189.187469 
	C185.910355,190.393158 184.987198,191.724884 184.000000,193.000000 
	C126.312439,193.000000 68.624878,193.000000 10.777374,192.683777 
	C8.686740,190.565567 6.790568,188.724548 4.812542,186.976105 
	C3.606860,185.910355 2.275119,184.987198 1.000000,184.000000 
M49.768162,48.154278 
	C44.299816,51.461891 39.513168,55.402962 39.837391,62.516010 
	C39.940098,64.769341 41.490654,66.956665 42.378632,69.174194 
	C44.211826,68.276878 46.320683,67.705673 47.832287,66.427910 
	C56.019539,59.507175 65.594612,57.756798 75.895561,57.785721 
	C72.348381,68.257767 68.893250,78.116264 65.715012,88.063232 
	C64.838547,90.806313 63.495094,92.069008 60.813236,93.425903 
	C55.155636,96.288391 49.976471,100.158508 44.846218,103.947220 
	C43.858898,104.676369 43.993855,106.925171 43.611080,108.472931 
	C45.139870,108.816818 46.688858,109.518921 48.193478,109.434097 
	C51.961742,109.221649 55.709900,108.652634 59.863922,108.181557 
	C59.628281,109.516159 59.436478,110.439407 59.305107,111.371170 
	C57.568733,123.686249 55.052322,135.957108 54.339363,148.331680 
	C53.667225,159.997849 56.416897,161.544540 68.121284,159.291626 
	C76.958603,157.590576 77.957207,155.584351 79.060814,146.676468 
	C80.651474,133.837219 83.228096,121.116211 85.587814,108.382523 
	C85.812943,107.167641 87.484161,105.289841 88.480080,105.292351 
	C98.705162,105.318115 108.929436,105.668732 119.460831,105.936516 
	C119.038116,108.516808 118.663910,110.304779 118.462639,112.112007 
	C117.358849,122.023170 115.464706,131.936127 115.429985,141.854034 
	C115.385506,154.557632 122.327019,159.814682 134.772049,158.284805 
	C138.081970,157.877930 139.963409,156.374359 139.949158,152.851730 
	C139.835266,124.681282 146.397034,97.386391 150.775269,69.798576 
	C152.363663,59.789776 153.423660,49.690269 154.432373,39.602913 
	C154.604691,37.879700 153.299591,36.008747 152.677002,34.206047 
	C150.853409,34.839344 148.362381,34.927246 147.321915,36.200497 
	C142.854141,41.667854 137.625168,46.968990 134.885681,53.289494 
	C130.416473,63.600765 127.735840,74.681221 124.124619,85.377731 
	C123.650795,86.781219 122.167526,88.861053 121.104393,88.890053 
	C111.203300,89.160149 101.291832,89.049919 91.081589,89.049919 
	C93.257874,80.985092 95.156334,73.592003 97.261955,66.258385 
	C98.990311,60.238708 101.228767,54.356155 102.755646,48.290615 
	C104.259834,42.315231 101.947815,38.903191 96.622269,38.966171 
	C80.712952,39.154320 65.071320,40.932083 49.768162,48.154278 
z"/>
<path fill="#000000" opacity="1.000000" stroke="none" 
	d="
M1.000000,184.491058 
	C2.275119,184.987198 3.606860,185.910355 4.812542,186.976105 
	C6.790568,188.724548 8.686740,190.565567 10.308717,192.683777 
	C7.082646,193.000000 4.165292,193.000000 1.000000,193.000000 
	C1.000000,190.330002 1.000000,187.656052 1.000000,184.491058 
z"/>
<path fill="#000000" opacity="1.000000" stroke="none" 
	d="
M184.491043,193.000000 
	C184.987198,191.724884 185.910355,190.393158 186.976105,189.187469 
	C188.724564,187.209457 190.565582,185.313248 192.683777,183.691284 
	C193.000000,186.917358 193.000000,189.834702 193.000000,193.000000 
	C190.330002,193.000000 187.656052,193.000000 184.491043,193.000000 
z"/>
<path fill="#000000" opacity="1.000000" stroke="none" 
	d="
M9.508951,1.000000 
	C9.007520,2.283688 8.080486,3.625276 7.007692,4.837911 
	C5.264350,6.808499 3.425594,8.694676 1.313556,10.308241 
	C1.000000,7.082645 1.000000,4.165290 1.000000,1.000000 
	C3.670005,1.000000 6.343954,1.000000 9.508951,1.000000 
z"/>
<path fill="#000000" opacity="1.000000" stroke="none" 
	d="
M193.000000,9.508951 
	C192.171783,9.930019 190.998444,10.186640 190.572235,9.736243 
	C188.091751,7.115011 185.786774,4.327710 183.711243,1.298267 
	C186.917358,1.000000 189.834702,1.000000 193.000000,1.000000 
	C193.000000,3.670005 193.000000,6.343954 193.000000,9.508951 
z"/>
<path fill="#040404" opacity="1.000000" stroke="none" 
	d="
M50.105103,48.006233 
	C65.071320,40.932083 80.712952,39.154320 96.622269,38.966171 
	C101.947815,38.903191 104.259834,42.315231 102.755646,48.290615 
	C101.228767,54.356155 98.990311,60.238708 97.261955,66.258385 
	C95.156334,73.592003 93.257874,80.985092 91.081589,89.049919 
	C101.291832,89.049919 111.203300,89.160149 121.104393,88.890053 
	C122.167526,88.861053 123.650795,86.781219 124.124619,85.377731 
	C127.735840,74.681221 130.416473,63.600765 134.885681,53.289494 
	C137.625168,46.968990 142.854141,41.667854 147.321915,36.200497 
	C148.362381,34.927246 150.853409,34.839344 152.677002,34.206047 
	C153.299591,36.008747 154.604691,37.879700 154.432373,39.602913 
	C153.423660,49.690269 152.363663,59.789776 150.775269,69.798576 
	C146.397034,97.386391 139.835266,124.681282 139.949158,152.851730 
	C139.963409,156.374359 138.081970,157.877930 134.772049,158.284805 
	C122.327019,159.814682 115.385506,154.557632 115.429985,141.854034 
	C115.464706,131.936127 117.358849,122.023170 118.462639,112.112007 
	C118.663910,110.304779 119.038116,108.516808 119.460831,105.936516 
	C108.929436,105.668732 98.705162,105.318115 88.480080,105.292351 
	C87.484161,105.289841 85.812943,107.167641 85.587814,108.382523 
	C83.228096,121.116211 80.651474,133.837219 79.060814,146.676468 
	C77.957207,155.584351 76.958603,157.590576 68.121284,159.291626 
	C56.416897,161.544540 53.667225,159.997849 54.339363,148.331680 
	C55.052322,135.957108 57.568733,123.686249 59.305107,111.371170 
	C59.436478,110.439407 59.628281,109.516159 59.863922,108.181557 
	C55.709900,108.652634 51.961742,109.221649 48.193478,109.434097 
	C46.688858,109.518921 45.139870,108.816818 43.611084,108.472931 
	C43.993855,106.925171 43.858898,104.676369 44.846218,103.947220 
	C49.976471,100.158508 55.155636,96.288391 60.813236,93.425903 
	C63.495094,92.069008 64.838547,90.806313 65.715012,88.063232 
	C68.893250,78.116264 72.348381,68.257767 75.895561,57.785721 
	C65.594612,57.756798 56.019539,59.507175 47.832287,66.427910 
	C46.320683,67.705673 44.211826,68.276878 42.378632,69.174194 
	C41.490654,66.956665 39.940098,64.769341 39.837391,62.516010 
	C39.513168,55.402962 44.299816,51.461891 50.105103,48.006233 
z"/>
</svg>